PathFileType	4	(X/Y/Z)	C:\Users\Basilio\Documents\Thesis Gigler\squatting_fais\c3dfiles\077\SJ_pre4\markers_experimental.trc
DataRate	CameraRate	NumFrames	NumMarkers	Units	OrigDataRate	OrigDataStartFrame	OrigNumFrames
200.000000	200.000000	4	60	mm	200.000000	0	1365
Frame#	Time	FHD			LBHD			RBHD			C7			T10			CLAV			LSHO			LUUPA			LMUPA			LDUPA			LLEP			LMEP			LRAD			LUL			LRFIN			RSHO			RUPA1			RMUPA			RDUPA			RLEP			RMEP			RRAD			RUL			RUFIN			LASI			RASI			USACR			LSACR			RSACR			LTHI1			LTHI2			LTHI3			LTHI4			LLFC			LMFC			LTIB1			LTIB2			LTIB3			LTIB4			LLMAL			LHEE			LMT1			LMT2			LMT5			RTHI			RTHI2			RTHI3			RTHI4			RLFC			RMFC			RTIB1			RTIB2			RTIB3			RTIB4			RLMAL			RMMAL			RHEE			RMT1			RMT2			RMT5			
		X1	Y1	Z1	X2	Y2	Z2	X3	Y3	Z3	X4	Y4	Z4	X5	Y5	Z5	X6	Y6	Z6	X7	Y7	Z7	X8	Y8	Z8	X9	Y9	Z9	X10	Y10	Z10	X11	Y11	Z11	X12	Y12	Z12	X13	Y13	Z13	X14	Y14	Z14	X15	Y15	Z15	X16	Y16	Z16	X17	Y17	Z17	X18	Y18	Z18	X19	Y19	Z19	X20	Y20	Z20	X21	Y21	Z21	X22	Y22	Z22	X23	Y23	Z23	X24	Y24	Z24	X25	Y25	Z25	X26	Y26	Z26	X27	Y27	Z27	X28	Y28	Z28	X29	Y29	Z29	X30	Y30	Z30	X31	Y31	Z31	X32	Y32	Z32	X33	Y33	Z33	X34	Y34	Z34	X35	Y35	Z35	X36	Y36	Z36	X37	Y37	Z37	X38	Y38	Z38	X39	Y39	Z39	X40	Y40	Z40	X41	Y41	Z41	X42	Y42	Z42	X43	Y43	Z43	X44	Y44	Z44	X45	Y45	Z45	X46	Y46	Z46	X47	Y47	Z47	X48	Y48	Z48	X49	Y49	Z49	X50	Y50	Z50	X51	Y51	Z51	X52	Y52	Z52	X53	Y53	Z53	X54	Y54	Z54	X55	Y55	Z55	X56	Y56	Z56	X57	Y57	Z57	X58	Y58	Z58	X59	Y59	Z59	X60	Y60	Z60	

1	0	-235.5328521728516	1831.681640625	-921.3969726562502	-361.0056457519532	1704.468505859375	-988.6211547851565	-366.1173400878907	1701.227905273438	-842.198913574219	-407.8041076660157	1570.07421875	-920.2844238281252	-414.3376464843751	1235.687133789063	-923.7215576171877	-233.8557434082032	1526.34814453125	-919.1877441406252	-300.5124511718751	1552.83837890625	-1111.951049804688	-342.6428833007813	1409.746948242188	-1275.3017578125	-304.8339233398438	1375.1513671875	-1280.31298828125	-349.9245300292969	1357.838012695313	-1318.793334960938	-341.6916503906251	1296.659057617188	-1352.222412109375	-416.3827209472657	1269.3896484375	-1315.193725585938	-292.4326171875001	1067.681518554688	-1155.596313476563	-244.7278594970704	1031.83056640625	-1209.654541015625	-243.4667205810547	1053.973388671875	-1099.91748046875	-274.3187866210938	1551.386108398438	-726.2617187500001	-333.0115051269532	1410.254272460938	-555.3042602539064	-303.7084045410157	1369.311157226563	-555.7155761718751	-344.4315795898438	1353.856689453125	-514.2623291015626	-343.6803588867188	1287.843994140625	-487.3924865722657	-425.0158996582032	1269.579345703125	-519.4469604492189	-322.3825683593751	1063.361328125	-679.5757446289064	-261.7478637695313	1035.626098632813	-636.0625000000001	-267.9079895019532	1069.052978515625	-731.3001098632814	-211.5376892089844	1043.436279296875	-1059.19482421875	-223.8489837646485	1052.2021484375	-782.7754516601565	-422.7990722656251	1125.112060546875	-923.5918579101565	-425.4218750000001	1094.534912109375	-952.9512939453127	-431.1889648437501	1092.742919921875	-897.7370605468752	-323.6891174316407	841.941833496094	-1139.6513671875	-311.9015808105469	758.4731445312501	-1148.31396484375	-263.9047851562501	750.6570434570314	-1142.931030273438	-350.1077270507813	711.1965332031251	-1138.791870117188	-350.7951965332032	561.6752319335939	-1136.348266601563	-329.6000976562501	514.3695068359376	-1014.212463378906	-324.2899475097657	335.9657287597657	-1127.77197265625	-368.8488159179688	307.4534301757813	-1200.00341796875	-331.7902832031251	298.2744140625001	-1173.16552734375	-333.5000610351563	212.2515258789063	-1160.073974609375	-403.6748657226564	103.4085311889649	-1213.895385742188	-443.9442749023439	46.81316757202149	-1163.060546875	-227.5746154785157	59.02579879760744	-1193.589111328125	-235.9322814941407	60.00181198120119	-1234.982421875	-356.2969055175782	100.8463363647461	-1137.862182617188	-376.7192382812501	734.3096923828126	-699.8659057617189	-349.4206237792969	673.9728393554689	-686.9768676757814	-315.7013854980469	670.5546875000001	-685.6104125976564	-386.8708496093751	603.4020385742189	-700.3132324218751	-393.0010986328126	535.5575561523439	-692.8894653320314	-333.0552978515626	497.0669860839845	-804.034851074219	-341.2562255859376	405.2817687988282	-669.3627319335939	-408.672088623047	329.7361450195313	-636.8057861328126	-362.1868591308594	323.9339599609376	-644.5426025390626	-345.6568603515626	273.7982482910157	-671.0280761718751	-416.5582275390626	99.20781707763675	-615.5930786132814	-363.6774291992188	94.53325653076173	-692.2141723632814	-455.7778320312501	44.73991394042969	-676.1448364257814	-242.0569915771485	59.74236297607423	-599.7548217773439	-256.0230102539063	60.9527931213379	-564.8041381835939	-284.0606994628907	41.56748199462891	-521.2383422851564	
2	0.005	-235.8775024414063	1831.619873046875	-921.5161743164065	-361.5080261230469	1704.398559570313	-988.7501220703127	-366.5387573242188	1701.179443359375	-842.4046630859377	-408.1644287109376	1570.024047851563	-920.4414062500002	-414.5346679687501	1235.57958984375	-923.9688110351565	-234.2325134277344	1526.306396484375	-919.3828735351565	-300.9186096191407	1552.709350585938	-1112.121704101563	-343.1179809570313	1409.592041015625	-1275.441284179688	-305.1993713378907	1375.0712890625	-1280.464599609375	-351.9201049804688	1357.873779296875	-1318.97265625	-342.0597229003907	1296.46826171875	-1352.337890625	-416.6368408203126	1269.0625	-1315.241333007813	-292.4464416503907	1067.584716796875	-1155.785522460938	-244.6149902343751	1031.815673828125	-1209.804077148438	-243.5104980468751	1054.022338867188	-1100.042358398438	-274.7445983886719	1551.233520507813	-726.4447631835939	-333.3864135742188	1410.12890625	-555.5158691406251	-304.0796203613282	1369.176391601563	-555.9137573242189	-344.8510131835938	1353.703247070313	-514.4398803710939	-344.0115661621094	1287.697143554688	-487.4721679687501	-425.3608703613282	1269.384399414063	-519.6741333007814	-322.5326232910157	1063.154296875	-679.6504516601564	-261.3386840820313	1035.987426757813	-635.3638916015626	-268.0304870605469	1068.939331054688	-731.3246459960939	-211.5207061767579	1043.332275390625	-1059.29541015625	-223.9255981445313	1052.130004882813	-782.794372558594	-422.8999938964845	1124.907836914063	-923.7692871093752	-425.4438781738282	1094.294799804688	-953.1151123046877	-431.219696044922	1092.490234375	-897.9047851562502	-323.8262939453126	841.9202270507815	-1139.82275390625	-312.1248168945313	758.4230957031251	-1148.34814453125	-264.0895996093751	750.6381835937501	-1142.9814453125	-350.2753295898438	711.1773681640626	-1138.861572265625	-351.0200500488282	561.6520996093751	-1136.403564453125	-329.8365173339844	514.3667602539064	-1014.179382324219	-324.4621276855469	335.9733276367188	-1127.799926757813	-368.9718933105469	307.4816894531251	-1199.979248046875	-331.9936218261719	298.2946777343751	-1173.194213867188	-333.5546569824219	212.2860717773438	-1160.13720703125	-403.6670227050782	103.3764343261719	-1213.918212890625	-443.9462280273439	46.81980133056641	-1163.0341796875	-227.6006164550782	59.06234359741212	-1193.618530273438	-235.9583587646485	60.02932739257814	-1234.966552734375	-356.2881164550782	100.8347854614258	-1137.92138671875	-376.9122009277344	734.2941894531251	-699.9663085937501	-349.6187133789063	674.0383300781251	-686.9625244140626	-315.9175109863282	670.5692749023439	-685.6737670898439	-387.0234985351564	603.3969726562501	-700.4503784179689	-393.0614318847657	535.5507812500001	-692.9720458984376	-332.9372253417969	497.0867004394532	-804.0114746093752	-341.2654113769532	405.2843322753907	-669.3734741210939	-408.7348937988282	329.7725219726563	-637.0273437500001	-362.2443237304688	323.9299011230469	-644.5662231445314	-345.6669921875001	273.8157348632813	-671.0346679687501	-416.5547485351564	99.17988586425784	-615.6445312500001	-363.6825866699219	94.51763153076173	-692.2191772460939	-455.7747497558595	44.7455062866211	-676.1084594726564	-242.0647125244141	59.73984909057619	-599.7568969726564	-256.0226440429688	60.94908523559572	-564.8067626953126	-284.0716552734376	41.55368804931641	-521.2186279296876	
3	0.01	-236.1228485107422	1831.547241210938	-921.6111450195315	-361.8920898437501	1704.34130859375	-988.9880981445315	-366.6683654785157	1702.005004882813	-842.6907958984377	-408.4815673828126	1569.978515625	-920.6833496093752	-414.7343750000001	1235.464477539063	-924.204284667969	-234.5592346191407	1526.22265625	-919.5041503906252	-301.3724060058594	1552.590942382813	-1112.271606445313	-343.5829467773438	1409.419555664063	-1275.57373046875	-305.6124267578126	1375.003662109375	-1280.630859375	-352.2312011718751	1357.705932617188	-1319.119506835938	-342.4146728515626	1296.31591796875	-1352.454956054688	-416.9194335937501	1268.73681640625	-1315.238891601563	-292.4304809570313	1067.419067382813	-1155.946899414063	-244.5241088867188	1031.719970703125	-1209.974365234375	-243.2678833007813	1054.117797851563	-1100.163330078125	-275.1093444824219	1551.08544921875	-726.6140136718751	-333.7174987792969	1409.963256835938	-555.6835327148439	-304.4669799804688	1368.974609375	-556.1762695312501	-345.1888122558594	1353.548583984375	-514.6088256835939	-344.3496398925782	1287.484985351563	-487.5645446777345	-425.7351074218751	1269.250610351563	-519.8593139648439	-322.7505798339844	1062.959716796875	-679.7667846679689	-261.5800476074219	1035.807739257813	-635.3858642578126	-268.1761779785157	1068.7900390625	-731.3404541015626	-211.3798217773438	1043.2255859375	-1059.437744140625	-224.0109558105469	1051.993774414063	-782.7675781250002	-422.939178466797	1124.658569335938	-923.9903564453127	-425.5492248535157	1094.077026367188	-953.2769775390627	-431.2392578125001	1092.207153320313	-898.101257324219	-324.0402832031251	841.8497314453127	-1139.917846679688	-312.2930908203126	758.4355468750001	-1148.442749023438	-264.2043762207032	750.5249633789064	-1143.050659179688	-350.4974365234376	711.1449584960939	-1138.901123046875	-351.2593994140626	561.6729125976564	-1136.390258789063	-330.0645751953126	514.3572998046876	-1014.122863769531	-323.8514709472657	335.5795593261719	-1127.439086914063	-369.1607666015626	307.4653320312501	-1200.0029296875	-332.1050720214844	298.3198852539063	-1173.257568359375	-333.6966552734376	212.3207244873047	-1160.145141601563	-403.6983642578126	103.3514251708985	-1213.942138671875	-443.9440917968751	46.83468246459962	-1163.031494140625	-227.6357879638672	59.04216766357423	-1193.630737304688	-236.1295318603516	59.64517211914064	-1235.156005859375	-356.3297729492188	100.8407135009766	-1137.93115234375	-377.1259460449219	734.2871093750001	-700.1137695312501	-349.8303222656251	674.0579223632814	-687.0080566406251	-316.1992187500001	670.5808105468751	-685.7267456054689	-387.1954040527345	603.3825683593751	-700.5426635742189	-393.1180419921876	535.5766601562501	-693.0808715820314	-332.8021850585938	497.0393371582032	-803.9334106445315	-341.3123779296876	405.256805419922	-669.4245605468751	-408.7678222656251	329.7811279296876	-637.0431518554689	-362.2902221679688	323.9162902832032	-644.5962524414064	-345.6891479492188	273.7934570312501	-671.0218505859376	-416.5565185546876	99.1706466674805	-615.6110839843751	-363.6522521972657	94.4875946044922	-692.1702880859376	-455.7840576171876	44.70391082763673	-676.1063232421876	-242.0970306396485	59.73176574707033	-599.7944946289064	-256.0231018066407	60.94129562377931	-564.8206787109376	-284.0504760742188	41.55279159545899	-521.2185668945314	
4	0.015	-236.4019775390626	1831.450073242188	-921.773376464844	-362.2536621093751	1704.276733398438	-989.0885009765627	-367.1085205078126	1701.965942382813	-842.9551391601565	-408.8380432128907	1569.901733398438	-920.8299560546877	-414.9444885253907	1235.345703125	-924.3758544921877	-234.8946990966797	1526.119140625	-919.6113891601565	-301.8220520019532	1552.432006835938	-1112.44091796875	-344.0483398437501	1409.212890625	-1275.621215820313	-305.9802551269532	1374.83544921875	-1280.761596679688	-352.6766967773438	1357.4677734375	-1319.19140625	-342.7145080566407	1296.1240234375	-1352.544921875	-417.1544494628907	1268.4462890625	-1315.191040039063	-292.4184265136719	1067.24755859375	-1156.084350585938	-244.4266967773438	1031.6728515625	-1210.14501953125	-243.161605834961	1054.199462890625	-1100.246215820313	-275.5059814453126	1550.8798828125	-726.7525634765626	-334.1050109863282	1409.795654296875	-555.9014282226564	-304.8755187988282	1368.787109375	-556.3759765625001	-345.5805358886719	1353.361938476563	-514.7478637695314	-344.6879272460938	1287.338745117188	-487.6652832031251	-426.0858154296876	1268.967651367188	-520.0704956054689	-322.8041687011719	1062.68798828125	-679.8526611328126	-261.8589782714844	1035.571044921875	-635.4378051757814	-268.2796020507813	1068.621215820313	-731.2808837890626	-211.3099365234376	1043.125854492188	-1059.614624023438	-224.0794525146485	1051.875854492188	-782.729431152344	-423.048553466797	1124.410400390625	-924.1381835937502	-425.5255737304689	1093.831909179688	-953.4883422851565	-431.2302551269532	1091.921142578125	-898.2938232421877	-324.1477661132813	841.876647949219	-1140.0751953125	-312.4362182617188	758.4136962890626	-1148.487060546875	-264.4111938476563	750.4832763671876	-1143.14599609375	-350.7103881835938	711.1356201171876	-1138.903442382813	-351.5165100097657	561.6571044921876	-1136.394165039063	-330.3009948730469	514.3415527343751	-1014.120300292969	-324.0215454101563	335.6013488769532	-1127.429321289063	-369.3971252441407	307.4666748046876	-1199.963500976563	-332.3034362792969	298.3193969726563	-1173.249267578125	-333.7914123535157	212.3128509521485	-1160.214599609375	-403.7539367675782	103.3493576049805	-1213.96533203125	-443.9801330566407	46.80084609985352	-1163.092651367188	-227.5903472900391	59.06183242797853	-1193.651489257813	-236.1632232666016	59.62809371948244	-1235.181030273438	-356.3638000488282	100.8376159667969	-1137.962280273438	-377.3814392089844	734.2814941406251	-700.2128295898439	-350.0474853515626	674.0778198242189	-687.0950927734376	-316.4108886718751	670.6365966796876	-685.7408447265626	-387.3723754882814	603.3648681640626	-700.6621704101564	-393.1911010742189	535.5550537109376	-693.1447753906251	-332.7669067382813	496.9734191894532	-803.9350585937502	-341.3926696777344	405.2576904296876	-669.4655151367189	-408.8462524414064	329.7621765136719	-637.1070556640626	-362.3491821289063	323.9169921875001	-644.6153564453126	-345.7427368164063	273.7700195312501	-671.0837402343751	-416.5803527832032	99.15406036376956	-615.6256713867189	-363.6637573242188	94.44607543945314	-692.2020263671876	-455.7720947265626	44.74227523803712	-676.1091308593751	-242.0565795898438	59.7363624572754	-599.7565917968751	-256.0208740234376	60.94395065307619	-564.8287353515626	-284.0568237304688	41.56072235107423	-521.2340087890626	
